<mxfile host="app.diagrams.net" modified="2024-03-08T07:59:36.450Z" agent="Mozilla/5.0 (Macintosh; Intel Mac OS X 10_15_7) AppleWebKit/537.36 (KHTML, like Gecko) Chrome/121.0.0.0 Safari/537.36" etag="HvsKVsOU4yP9VImHJLdt" version="23.1.7" type="github">
  <diagram name="Page-1" id="74e2e168-ea6b-b213-b513-2b3c1d86103e">
    <mxGraphModel dx="1441" dy="779" grid="1" gridSize="10" guides="1" tooltips="1" connect="1" arrows="1" fold="1" page="1" pageScale="1" pageWidth="1100" pageHeight="850" background="none" math="0" shadow="0">
      <root>
        <mxCell id="0" />
        <mxCell id="1" parent="0" />
        <mxCell id="77e6c97f196da883-1" value="Patent Copilot" style="swimlane;html=1;childLayout=stackLayout;startSize=20;rounded=0;shadow=0;labelBackgroundColor=none;strokeWidth=1;fontFamily=Verdana;fontSize=8;align=center;" parent="1" vertex="1">
          <mxGeometry x="130" y="30" width="1370" height="930" as="geometry" />
        </mxCell>
        <mxCell id="77e6c97f196da883-2" value="前端业务" style="swimlane;html=1;startSize=20;" parent="77e6c97f196da883-1" vertex="1">
          <mxGeometry y="20" width="600" height="910" as="geometry" />
        </mxCell>
        <mxCell id="77e6c97f196da883-8" value="用户问题" style="rounded=1;whiteSpace=wrap;html=1;shadow=0;labelBackgroundColor=none;strokeWidth=1;fontFamily=Verdana;fontSize=8;align=center;" parent="77e6c97f196da883-2" vertex="1">
          <mxGeometry x="20" y="72.5" width="60" height="45" as="geometry" />
        </mxCell>
        <mxCell id="77e6c97f196da883-3" value="patent llm service" style="swimlane;html=1;startSize=20;" parent="77e6c97f196da883-2" vertex="1">
          <mxGeometry x="120" width="480" height="910" as="geometry" />
        </mxCell>
        <mxCell id="qPozsAheYkU9J-3sLhaw-2" value="" style="edgeStyle=orthogonalEdgeStyle;rounded=0;orthogonalLoop=1;jettySize=auto;html=1;" edge="1" parent="77e6c97f196da883-3" source="77e6c97f196da883-11" target="qPozsAheYkU9J-3sLhaw-1">
          <mxGeometry relative="1" as="geometry" />
        </mxCell>
        <mxCell id="77e6c97f196da883-11" value="安全检查" style="rounded=1;whiteSpace=wrap;html=1;shadow=0;labelBackgroundColor=none;strokeWidth=1;fontFamily=Verdana;fontSize=8;align=center;" parent="77e6c97f196da883-3" vertex="1">
          <mxGeometry x="30" y="65" width="100" height="60" as="geometry" />
        </mxCell>
        <mxCell id="77e6c97f196da883-9" value="获取意图" style="rounded=1;whiteSpace=wrap;html=1;shadow=0;labelBackgroundColor=none;strokeWidth=1;fontFamily=Verdana;fontSize=8;align=center;" parent="77e6c97f196da883-3" vertex="1">
          <mxGeometry x="30" y="320" width="100" height="60" as="geometry" />
        </mxCell>
        <mxCell id="qPozsAheYkU9J-3sLhaw-3" style="edgeStyle=orthogonalEdgeStyle;rounded=0;orthogonalLoop=1;jettySize=auto;html=1;entryX=0.5;entryY=0;entryDx=0;entryDy=0;" edge="1" parent="77e6c97f196da883-3" source="qPozsAheYkU9J-3sLhaw-1" target="77e6c97f196da883-9">
          <mxGeometry relative="1" as="geometry" />
        </mxCell>
        <mxCell id="qPozsAheYkU9J-3sLhaw-9" value="是" style="edgeLabel;html=1;align=center;verticalAlign=middle;resizable=0;points=[];" vertex="1" connectable="0" parent="qPozsAheYkU9J-3sLhaw-3">
          <mxGeometry x="0.0529" y="-2" relative="1" as="geometry">
            <mxPoint as="offset" />
          </mxGeometry>
        </mxCell>
        <mxCell id="qPozsAheYkU9J-3sLhaw-1" value="是否指定意图？" style="rhombus;whiteSpace=wrap;html=1;rounded=0;shadow=0;labelBackgroundColor=none;strokeWidth=1;fontFamily=Verdana;fontSize=8;align=center;" vertex="1" parent="77e6c97f196da883-3">
          <mxGeometry x="40" y="180" width="80" height="60" as="geometry" />
        </mxCell>
        <mxCell id="qPozsAheYkU9J-3sLhaw-8" style="edgeStyle=elbowEdgeStyle;rounded=0;orthogonalLoop=1;jettySize=auto;html=1;entryX=0.75;entryY=0;entryDx=0;entryDy=0;elbow=vertical;" edge="1" parent="77e6c97f196da883-3" source="77e6c97f196da883-12">
          <mxGeometry relative="1" as="geometry">
            <mxPoint x="245" y="225" as="sourcePoint" />
            <mxPoint x="100" y="320" as="targetPoint" />
            <Array as="points">
              <mxPoint x="280" y="260" />
            </Array>
          </mxGeometry>
        </mxCell>
        <mxCell id="qPozsAheYkU9J-3sLhaw-12" value="字段解释" style="whiteSpace=wrap;html=1;fontSize=8;fontFamily=Verdana;rounded=1;shadow=0;labelBackgroundColor=none;strokeWidth=1;" vertex="1" parent="77e6c97f196da883-3">
          <mxGeometry x="20" y="430" width="60" height="20" as="geometry" />
        </mxCell>
        <mxCell id="qPozsAheYkU9J-3sLhaw-15" value="Base Model" style="whiteSpace=wrap;html=1;fontSize=8;fontFamily=Verdana;rounded=1;shadow=0;labelBackgroundColor=none;strokeWidth=1;" vertex="1" parent="77e6c97f196da883-3">
          <mxGeometry x="90" y="430" width="60" height="20" as="geometry" />
        </mxCell>
        <mxCell id="qPozsAheYkU9J-3sLhaw-16" value="Webgpt类意图" style="whiteSpace=wrap;html=1;fontSize=8;fontFamily=Verdana;rounded=1;shadow=0;labelBackgroundColor=none;strokeWidth=1;" vertex="1" parent="77e6c97f196da883-3">
          <mxGeometry x="160" y="430" width="60" height="20" as="geometry" />
        </mxCell>
        <mxCell id="qPozsAheYkU9J-3sLhaw-17" value="Patent Law" style="whiteSpace=wrap;html=1;fontSize=8;fontFamily=Verdana;rounded=1;shadow=0;labelBackgroundColor=none;strokeWidth=1;" vertex="1" parent="77e6c97f196da883-3">
          <mxGeometry x="160" y="470" width="60" height="20" as="geometry" />
        </mxCell>
        <mxCell id="qPozsAheYkU9J-3sLhaw-18" value="帮助文档" style="whiteSpace=wrap;html=1;fontSize=8;fontFamily=Verdana;rounded=1;shadow=0;labelBackgroundColor=none;strokeWidth=1;" vertex="1" parent="77e6c97f196da883-3">
          <mxGeometry x="160" y="501" width="60" height="20" as="geometry" />
        </mxCell>
        <mxCell id="qPozsAheYkU9J-3sLhaw-19" value="论文检索" style="whiteSpace=wrap;html=1;fontSize=8;fontFamily=Verdana;rounded=1;shadow=0;labelBackgroundColor=none;strokeWidth=1;" vertex="1" parent="77e6c97f196da883-3">
          <mxGeometry x="160" y="540" width="60" height="20" as="geometry" />
        </mxCell>
        <mxCell id="qPozsAheYkU9J-3sLhaw-20" value="专利检索" style="whiteSpace=wrap;html=1;fontSize=8;fontFamily=Verdana;rounded=1;shadow=0;labelBackgroundColor=none;strokeWidth=1;" vertex="1" parent="77e6c97f196da883-3">
          <mxGeometry x="160" y="570" width="60" height="20" as="geometry" />
        </mxCell>
        <mxCell id="qPozsAheYkU9J-3sLhaw-21" value="谷歌检索" style="whiteSpace=wrap;html=1;fontSize=8;fontFamily=Verdana;rounded=1;shadow=0;labelBackgroundColor=none;strokeWidth=1;" vertex="1" parent="77e6c97f196da883-3">
          <mxGeometry x="160" y="600" width="60" height="20" as="geometry" />
        </mxCell>
        <mxCell id="qPozsAheYkU9J-3sLhaw-39" value="论文和专利检索" style="whiteSpace=wrap;html=1;fontSize=8;fontFamily=Verdana;rounded=1;shadow=0;labelBackgroundColor=none;strokeWidth=1;" vertex="1" parent="77e6c97f196da883-3">
          <mxGeometry x="160" y="630" width="60" height="20" as="geometry" />
        </mxCell>
        <mxCell id="qPozsAheYkU9J-3sLhaw-41" value="EUREKA Chat类意图" style="whiteSpace=wrap;html=1;fontSize=8;fontFamily=Verdana;rounded=1;shadow=0;labelBackgroundColor=none;strokeWidth=1;" vertex="1" parent="77e6c97f196da883-3">
          <mxGeometry x="240" y="430" width="60" height="20" as="geometry" />
        </mxCell>
        <mxCell id="qPozsAheYkU9J-3sLhaw-42" value="公司类意图" style="whiteSpace=wrap;html=1;fontSize=8;fontFamily=Verdana;rounded=1;shadow=0;labelBackgroundColor=none;strokeWidth=1;" vertex="1" parent="77e6c97f196da883-3">
          <mxGeometry x="310" y="430" width="60" height="20" as="geometry" />
        </mxCell>
        <mxCell id="qPozsAheYkU9J-3sLhaw-43" value="生物医药类意图" style="whiteSpace=wrap;html=1;fontSize=8;fontFamily=Verdana;rounded=1;shadow=0;labelBackgroundColor=none;strokeWidth=1;" vertex="1" parent="77e6c97f196da883-3">
          <mxGeometry x="380" y="430" width="60" height="20" as="geometry" />
        </mxCell>
        <mxCell id="qPozsAheYkU9J-3sLhaw-44" value="" style="swimlane;startSize=0;" vertex="1" parent="77e6c97f196da883-3">
          <mxGeometry x="15" y="420" width="455" height="280" as="geometry" />
        </mxCell>
        <mxCell id="qPozsAheYkU9J-3sLhaw-50" value="" style="swimlane;startSize=0;" vertex="1" parent="qPozsAheYkU9J-3sLhaw-44">
          <mxGeometry x="138" y="6" width="72" height="240" as="geometry" />
        </mxCell>
        <mxCell id="77e6c97f196da883-26" style="edgeStyle=orthogonalEdgeStyle;rounded=1;html=1;labelBackgroundColor=none;startArrow=none;startFill=0;startSize=5;endArrow=classicThin;endFill=1;endSize=5;jettySize=auto;orthogonalLoop=1;strokeWidth=1;fontFamily=Verdana;fontSize=8" parent="77e6c97f196da883-2" source="77e6c97f196da883-8" target="77e6c97f196da883-11" edge="1">
          <mxGeometry relative="1" as="geometry" />
        </mxCell>
        <mxCell id="77e6c97f196da883-4" value="意图分类接口" style="swimlane;html=1;startSize=20;" parent="77e6c97f196da883-1" vertex="1">
          <mxGeometry x="600" y="20" width="160" height="910" as="geometry" />
        </mxCell>
        <mxCell id="77e6c97f196da883-12" value="意图分类" style="rounded=1;whiteSpace=wrap;html=1;shadow=0;labelBackgroundColor=none;strokeWidth=1;fontFamily=Verdana;fontSize=8;align=center;" parent="77e6c97f196da883-4" vertex="1">
          <mxGeometry x="30" y="180" width="100" height="60" as="geometry" />
        </mxCell>
        <mxCell id="qPozsAheYkU9J-3sLhaw-52" style="edgeStyle=orthogonalEdgeStyle;rounded=0;orthogonalLoop=1;jettySize=auto;html=1;entryX=0;entryY=0.5;entryDx=0;entryDy=0;" edge="1" parent="77e6c97f196da883-4">
          <mxGeometry relative="1" as="geometry">
            <mxPoint x="-290" y="666" as="sourcePoint" />
            <mxPoint x="204" y="640" as="targetPoint" />
            <Array as="points">
              <mxPoint x="-290" y="670" />
              <mxPoint x="-27" y="670" />
              <mxPoint x="-27" y="630" />
              <mxPoint x="204" y="630" />
            </Array>
          </mxGeometry>
        </mxCell>
        <mxCell id="qPozsAheYkU9J-3sLhaw-57" value="iintent code" style="edgeLabel;html=1;align=center;verticalAlign=middle;resizable=0;points=[];" vertex="1" connectable="0" parent="qPozsAheYkU9J-3sLhaw-52">
          <mxGeometry x="-0.2304" y="4" relative="1" as="geometry">
            <mxPoint as="offset" />
          </mxGeometry>
        </mxCell>
        <mxCell id="qPozsAheYkU9J-3sLhaw-61" style="edgeStyle=orthogonalEdgeStyle;rounded=0;orthogonalLoop=1;jettySize=auto;html=1;entryX=0.5;entryY=0;entryDx=0;entryDy=0;" edge="1" parent="77e6c97f196da883-4">
          <mxGeometry relative="1" as="geometry">
            <mxPoint x="-130" y="460" as="sourcePoint" />
            <mxPoint x="550" y="560" as="targetPoint" />
          </mxGeometry>
        </mxCell>
        <mxCell id="77e6c97f196da883-5" value="专利检索" style="swimlane;html=1;startSize=20;" parent="77e6c97f196da883-1" vertex="1">
          <mxGeometry x="760" y="20" width="160" height="910" as="geometry" />
        </mxCell>
        <mxCell id="qPozsAheYkU9J-3sLhaw-48" value="专利类搜索接口" style="rounded=1;whiteSpace=wrap;html=1;shadow=0;labelBackgroundColor=none;strokeWidth=1;fontFamily=Verdana;fontSize=8;align=center;" vertex="1" parent="77e6c97f196da883-5">
          <mxGeometry x="50" y="610" width="100" height="60" as="geometry" />
        </mxCell>
        <mxCell id="qPozsAheYkU9J-3sLhaw-4" value="否" style="edgeStyle=orthogonalEdgeStyle;rounded=0;orthogonalLoop=1;jettySize=auto;html=1;" edge="1" parent="77e6c97f196da883-1" source="qPozsAheYkU9J-3sLhaw-1" target="77e6c97f196da883-12">
          <mxGeometry relative="1" as="geometry" />
        </mxCell>
        <mxCell id="qPozsAheYkU9J-3sLhaw-53" value="Eureka chat接口" style="swimlane;html=1;startSize=20;" vertex="1" parent="77e6c97f196da883-1">
          <mxGeometry x="920" y="20" width="160" height="910" as="geometry" />
        </mxCell>
        <mxCell id="qPozsAheYkU9J-3sLhaw-54" value="Eureka chat接口" style="rounded=1;whiteSpace=wrap;html=1;shadow=0;labelBackgroundColor=none;strokeWidth=1;fontFamily=Verdana;fontSize=8;align=center;" vertex="1" parent="qPozsAheYkU9J-3sLhaw-53">
          <mxGeometry x="40" y="540" width="100" height="60" as="geometry" />
        </mxCell>
        <mxCell id="qPozsAheYkU9J-3sLhaw-56" style="edgeStyle=orthogonalEdgeStyle;rounded=0;orthogonalLoop=1;jettySize=auto;html=1;entryX=0.5;entryY=0;entryDx=0;entryDy=0;" edge="1" parent="77e6c97f196da883-1" source="qPozsAheYkU9J-3sLhaw-41" target="qPozsAheYkU9J-3sLhaw-54">
          <mxGeometry relative="1" as="geometry">
            <Array as="points">
              <mxPoint x="430" y="510" />
              <mxPoint x="1050" y="510" />
            </Array>
          </mxGeometry>
        </mxCell>
        <mxCell id="qPozsAheYkU9J-3sLhaw-58" value="company search接口" style="swimlane;html=1;startSize=20;" vertex="1" parent="77e6c97f196da883-1">
          <mxGeometry x="1080" y="20" width="160" height="910" as="geometry" />
        </mxCell>
        <mxCell id="qPozsAheYkU9J-3sLhaw-59" value="Eureka chat接口" style="rounded=1;whiteSpace=wrap;html=1;shadow=0;labelBackgroundColor=none;strokeWidth=1;fontFamily=Verdana;fontSize=8;align=center;" vertex="1" parent="qPozsAheYkU9J-3sLhaw-58">
          <mxGeometry x="40" y="540" width="100" height="60" as="geometry" />
        </mxCell>
      </root>
    </mxGraphModel>
  </diagram>
</mxfile>
